<?xml version="1.0" standalone="no"?>
<!DOCTYPE svg PUBLIC "-//W3C//DTD SVG 20010904//EN"
 "http://www.w3.org/TR/2001/REC-SVG-20010904/DTD/svg10.dtd">
<svg version="1.0" xmlns="http://www.w3.org/2000/svg"
 width="700.000000pt" height="700.000000pt" viewBox="0 0 700.000000 700.000000"
 preserveAspectRatio="xMidYMid meet">
<metadata>
Created by potrace 1.14, written by Peter Selinger 2001-2017
</metadata>
<g transform="translate(0.000000,700.000000) scale(0.100000,-0.100000)"
fill="#000000" stroke="none">
<path d="M955 6989 c-490 -62 -883 -458 -944 -954 -6 -49 -11 -222 -11 -382
l0 -293 3500 0 3500 0 0 293 c0 160 -5 333 -11 382 -62 502 -452 892 -954 954
-110 13 -4972 13 -5080 0z"/>
<path d="M0 3500 l0 -1420 3500 0 3500 0 0 1420 0 1420 -3500 0 -3500 0 0
-1420z m1714 740 c112 -29 190 -73 277 -160 61 -60 85 -94 123 -170 63 -128
86 -239 87 -430 2 -168 -9 -220 -73 -350 -33 -69 -58 -101 -127 -170 -52 -52
-110 -98 -146 -117 -37 -20 -54 -34 -45 -37 28 -9 234 -55 325 -72 50 -9 91
-18 92 -19 4 -2 -52 -153 -58 -160 -6 -6 -278 72 -487 139 -75 24 -168 47
-207 51 -267 26 -488 200 -579 454 -30 84 -31 90 -30 261 0 207 19 303 86 440
55 111 179 239 280 288 148 72 328 92 482 52z m1116 -525 c6 -560 5 -550 63
-658 56 -107 150 -161 277 -161 161 0 273 90 333 267 20 59 22 85 25 570 l3
507 95 0 95 0 -3 -507 c-4 -480 -5 -512 -25 -584 -76 -272 -249 -403 -533
-403 -171 0 -285 39 -377 132 -58 58 -94 122 -124 222 -23 73 -23 87 -27 608
l-3 533 98 -3 98 -3 5 -520z m1590 -210 l0 -735 -95 0 -95 0 0 735 0 735 95 0
95 0 0 -735z m1470 670 l0 -55 -405 -590 c-223 -324 -405 -592 -405 -595 0 -3
187 -5 415 -5 l416 0 -3 -77 -3 -78 -540 0 -540 0 -3 47 c-3 47 -3 47 406 645
l409 598 -371 5 -371 5 -3 78 -3 77 501 0 500 0 0 -55z"/>
<path d="M1433 4085 c-81 -23 -132 -52 -193 -114 -72 -72 -133 -193 -156 -311
-20 -100 -14 -269 11 -365 44 -163 144 -299 263 -357 63 -31 73 -33 177 -33
105 0 114 2 180 34 135 66 231 198 276 380 18 71 20 104 16 210 -8 209 -54
330 -171 447 -54 54 -85 76 -131 94 -76 29 -199 36 -272 15z"/>
<path d="M0 1348 c0 -161 5 -333 11 -383 61 -501 453 -893 954 -954 127 -15
4943 -15 5070 0 421 52 772 337 905 737 52 156 60 235 60 580 l0 312 -3500 0
-3500 0 0 -292z"/>
</g>
</svg>
